<mxfile host="app.diagrams.net" modified="2023-04-27T06:54:30.340Z" agent="Mozilla/5.0 (Windows NT 10.0; Win64; x64) AppleWebKit/537.36 (KHTML, like Gecko) Chrome/112.0.0.0 Safari/537.36" etag="U0W3hh3V0aRW4ruHi2jN" version="21.1.7" type="github">
  <diagram name="Page-1" id="H0EF8nhYQ-HjldsKZbg0">
    <mxGraphModel dx="1434" dy="881" grid="1" gridSize="10" guides="1" tooltips="1" connect="1" arrows="1" fold="1" page="1" pageScale="1" pageWidth="827" pageHeight="1169" math="0" shadow="0">
      <root>
        <mxCell id="0" />
        <mxCell id="1" parent="0" />
        <mxCell id="7uWYXJwYzICWAR19UML9-1" value="Accommodation&lt;br&gt;&lt;b&gt;Component&lt;/b&gt;" style="html=1;dropTarget=0;whiteSpace=wrap;" vertex="1" parent="1">
          <mxGeometry x="130" y="140" width="180" height="90" as="geometry" />
        </mxCell>
        <mxCell id="7uWYXJwYzICWAR19UML9-2" value="" style="shape=module;jettyWidth=8;jettyHeight=4;" vertex="1" parent="7uWYXJwYzICWAR19UML9-1">
          <mxGeometry x="1" width="20" height="20" relative="1" as="geometry">
            <mxPoint x="-27" y="7" as="offset" />
          </mxGeometry>
        </mxCell>
        <mxCell id="7uWYXJwYzICWAR19UML9-4" value="Reservations&lt;br&gt;&lt;b&gt;Component&lt;/b&gt;" style="html=1;dropTarget=0;whiteSpace=wrap;" vertex="1" parent="1">
          <mxGeometry x="130" y="250" width="180" height="90" as="geometry" />
        </mxCell>
        <mxCell id="7uWYXJwYzICWAR19UML9-5" value="" style="shape=module;jettyWidth=8;jettyHeight=4;" vertex="1" parent="7uWYXJwYzICWAR19UML9-4">
          <mxGeometry x="1" width="20" height="20" relative="1" as="geometry">
            <mxPoint x="-27" y="7" as="offset" />
          </mxGeometry>
        </mxCell>
        <mxCell id="7uWYXJwYzICWAR19UML9-6" value="Auth&lt;br&gt;&lt;b&gt;Component&lt;/b&gt;" style="html=1;dropTarget=0;whiteSpace=wrap;" vertex="1" parent="1">
          <mxGeometry x="130" y="370" width="180" height="90" as="geometry" />
        </mxCell>
        <mxCell id="7uWYXJwYzICWAR19UML9-7" value="" style="shape=module;jettyWidth=8;jettyHeight=4;" vertex="1" parent="7uWYXJwYzICWAR19UML9-6">
          <mxGeometry x="1" width="20" height="20" relative="1" as="geometry">
            <mxPoint x="-27" y="7" as="offset" />
          </mxGeometry>
        </mxCell>
      </root>
    </mxGraphModel>
  </diagram>
</mxfile>
